<?xml version="1.0" encoding="UTF-8" standalone="no"?>
<svg
   version="1.1"
   x="0px"
   y="0px"
   viewBox="0 0 50 50"
   enable-background="new 0 0 100 100"
   xml:space="preserve"
   id="svg2"
   inkscape:version="1.1.1 (3bf5ae0d25, 2021-09-20)"
   width="50"
   height="50"
   sodipodi:docname="calendar.svg"
   inkscape:export-filename="C:\Users\Dell\Desktop\Skola\3.rocnik\TIS-ko\frontend\images\calendar.png"
   inkscape:export-xdpi="96"
   inkscape:export-ydpi="96"
   xmlns:inkscape="http://www.inkscape.org/namespaces/inkscape"
   xmlns:sodipodi="http://sodipodi.sourceforge.net/DTD/sodipodi-0.dtd"
   xmlns="http://www.w3.org/2000/svg"
   xmlns:svg="http://www.w3.org/2000/svg"
   xmlns:rdf="http://www.w3.org/1999/02/22-rdf-syntax-ns#"
   xmlns:cc="http://creativecommons.org/ns#"
   xmlns:dc="http://purl.org/dc/elements/1.1/"><metadata
     id="metadata24"><rdf:RDF><cc:Work
         rdf:about=""><dc:format>image/svg+xml</dc:format><dc:type
           rdf:resource="http://purl.org/dc/dcmitype/StillImage" /></cc:Work></rdf:RDF></metadata><defs
     id="defs22" /><sodipodi:namedview
     pagecolor="#ffffff"
     bordercolor="#666666"
     borderopacity="1"
     objecttolerance="10"
     gridtolerance="10"
     guidetolerance="10"
     inkscape:pageopacity="0"
     inkscape:pageshadow="2"
     inkscape:window-width="1920"
     inkscape:window-height="1027"
     id="namedview20"
     showgrid="false"
     inkscape:zoom="7.552"
     inkscape:cx="26.946504"
     inkscape:cy="13.572564"
     inkscape:window-x="-8"
     inkscape:window-y="-8"
     inkscape:window-maximized="1"
     inkscape:current-layer="svg2"
     fit-margin-top="10"
     fit-margin-left="10"
     fit-margin-right="10"
     fit-margin-bottom="10"
     inkscape:pagecheckerboard="1" /><g
     id="g4"
     transform="matrix(0.83333333,0,0,0.68027211,-16.666666,-9.1836735)"><path
       d="M 20,87 H 80 V 37 H 20 Z m 2,-12 h 9 V 85 H 22 Z M 55,63 V 73 H 45 V 63 Z M 45,61 V 51 H 55 V 61 Z M 43,73 H 33 V 63 h 10 z m 0,2 V 85 H 33 V 75 Z m 2,0 H 55 V 85 H 45 Z m 12,0 H 67 V 85 H 57 Z m 0,-2 V 63 H 67 V 73 Z M 69,63 h 9 v 10 h -9 z m 0,-2 V 51 h 9 v 10 z m -2,0 H 57 V 51 H 67 Z M 57,49 V 39 h 10 v 10 z m -2,0 H 45 V 39 H 55 Z M 43,49 H 33 V 39 h 10 z m 0,2 V 61 H 33 V 51 Z M 31,61 H 22 V 51 h 9 z m 0,2 V 73 H 22 V 63 Z M 69,85 V 75 h 9 V 85 Z M 78,49 H 69 V 39 h 9 z M 31,39 V 49 H 22 V 39 Z"
       id="path6"
       inkscape:connector-curvature="0"
       style="fill:#ffffff" /><path
       d="m 72,22 h -2 v -6.5 c 0,-1.104 -0.896,-2 -2,-2 -1.104,0 -2,0.896 -2,2 V 22 H 34 v -6.5 c 0,-1.104 -0.896,-2 -2,-2 -1.104,0 -2,0.896 -2,2 V 22 h -2 c -4.418,0 -8,3.082 -8,7.5 V 34 H 80 V 29.5 C 80,25.082 76.418,22 72,22 Z m -40.002,9.5 c -2.21,0 -4,-1.79 -4,-4 0,-1.479 0.811,-2.754 2.002,-3.447 V 27.5 c 0,1.104 0.896,2 2,2 1.104,0 2,-0.896 2,-2 v -3.444 c 1.189,0.693 1.998,1.968 1.998,3.444 0,2.21 -1.79,4 -4,4 z m 36,0 c -2.21,0 -4,-1.79 -4,-4 0,-1.479 0.811,-2.754 2.002,-3.447 V 27.5 c 0,1.104 0.896,2 2,2 1.104,0 2,-0.896 2,-2 v -3.444 c 1.189,0.693 1.998,1.968 1.998,3.444 0,2.21 -1.79,4 -4,4 z"
       id="path8"
       inkscape:connector-curvature="0"
       style="fill:#ffffff" /><rect
       x="35"
       y="41"
       width="6"
       height="6"
       id="rect10"
       style="fill:#ffffff" /><rect
       x="59"
       y="65"
       width="6"
       height="6"
       id="rect12"
       style="fill:#ffffff" /><rect
       x="47"
       y="65"
       width="6"
       height="6"
       id="rect14"
       style="fill:#ffffff" /></g></svg>
