<?xml version="1.0" encoding="UTF-8" standalone="no"?>
<!-- Generator: Adobe Illustrator 16.0.0, SVG Export Plug-In . SVG Version: 6.00 Build 0)  -->

<svg
   version="1.1"
   id="Capa_1"
   x="0px"
   y="0px"
   width="100"
   height="100"
   viewBox="0 0 100 100"
   xml:space="preserve"
   sodipodi:docname="power-button-symbol.svg"
   inkscape:version="1.1.1 (3bf5ae0d25, 2021-09-20)"
   xmlns:inkscape="http://www.inkscape.org/namespaces/inkscape"
   xmlns:sodipodi="http://sodipodi.sourceforge.net/DTD/sodipodi-0.dtd"
   xmlns="http://www.w3.org/2000/svg"
   xmlns:svg="http://www.w3.org/2000/svg"><defs
   id="defs39">
	
</defs><sodipodi:namedview
   id="namedview37"
   pagecolor="#ffffff"
   bordercolor="#111111"
   borderopacity="1"
   inkscape:pageshadow="0"
   inkscape:pageopacity="0"
   inkscape:pagecheckerboard="false"
   showgrid="false"
   inkscape:zoom="4"
   inkscape:cx="111.125"
   inkscape:cy="94.875"
   inkscape:window-width="1920"
   inkscape:window-height="1027"
   inkscape:window-x="-8"
   inkscape:window-y="-8"
   inkscape:window-maximized="1"
   inkscape:current-layer="Capa_1" />
<rect
   style="font-variation-settings:'wght' 700;fill:#ffffff;stroke-width:0.175584"
   id="rect1770"
   width="62.760777"
   height="78.282249"
   x="21.595095"
   y="5.3987784" /><path
   id="rect1259"
   style="font-variation-settings:'wght' 700;fill:#ffcd00;fill-opacity:1;stroke-width:0.207686"
   d="M 0,0 V 100 H 100 V 0 Z m 46.967578,22.707029 h 6.065626 v 24.260942 h -6.065626 z m -6.065624,7.983986 v 6.70587 c -5.419,3.150574 -9.097266,8.931321 -9.097266,15.635931 0,10.033804 8.161912,18.195716 18.195312,18.195716 10.0342,0 18.195312,-8.161912 18.195312,-18.195716 0,-6.693 -3.684466,-12.485355 -9.097266,-15.635931 v -6.70587 c 8.861,3.613195 15.1625,12.202191 15.1625,22.341801 0,13.386804 -10.880556,24.260155 -24.260156,24.260155 -13.38,0 -24.260936,-10.873351 -24.260936,-24.260155 0,-10.13961 6.3021,-18.728801 15.1625,-22.341801 z" />
<g
   id="g6">
</g>
<g
   id="g8">
</g>
<g
   id="g10">
</g>
<g
   id="g12">
</g>
<g
   id="g14">
</g>
<g
   id="g16">
</g>
<g
   id="g18">
</g>
<g
   id="g20">
</g>
<g
   id="g22">
</g>
<g
   id="g24">
</g>
<g
   id="g26">
</g>
<g
   id="g28">
</g>
<g
   id="g30">
</g>
<g
   id="g32">
</g>
<g
   id="g34">
</g>
</svg>
